<?xml version="1.0" encoding="iso-8859-1"?>
<!-- Generator: Adobe Illustrator 19.0.0, SVG Export Plug-In . SVG Version: 6.00 Build 0)  -->
<svg version="1.1" id="Layer_1" xmlns="http://www.w3.org/2000/svg" xmlns:xlink="http://www.w3.org/1999/xlink" x="0px" y="0px"
	 viewBox="0 0 511.996 511.996" style="enable-background:new 0 0 511.996 511.996;" xml:space="preserve">
<path style="fill:#CC894F;" d="M442.318,228.004c0,0,0.97-71.42-29.889-116.581c-4.417-6.465-13.89-6.651-18.46-0.294
	c-7.963,11.076-19.816,29.064-29.264,49.724c-21.735,47.53,30.798,95.37,75.595,68.4
	C440.973,228.846,441.646,228.43,442.318,228.004z"/>
<g>
	<path style="fill:#825732;" d="M362.688,391.339l-25.793,56.972l13.248,2.814c1.738,0.369,2.981,1.903,2.981,3.678v9.546
		c0,2.076-1.684,3.76-3.763,3.76h-48.565c-5.1,0-8.723-4.961-7.168-9.814l17.899-71.765L362.688,391.339z"/>
	<path style="fill:#825732;" d="M186.69,397.864l5.522,66.793c0.161,1.95,1.792,3.45,3.75,3.45h52.508
		c2.078,0,3.763-1.683,3.763-3.76v-10.431c0-1.728-1.18-3.235-2.86-3.65l-26.011-3.053l15.211-58.28L186.69,397.864z"/>
</g>
<path style="fill:#FBB071;" d="M155.698,319.497v15.779c0,0-84.103,4.985-131.379-82.735
	c-11.538-21.407-16.134-44.564-16.467-67.408C6.981,124.388,36.302,65.905,45.643,48.851c1.389-2.536,4.866-2.932,6.782-0.767
	c11.084,12.52,42.097,53.126,50.011,123.029v0.01c1.62,14.321,2.274,29.869,1.589,46.654
	C100.435,305.547,155.698,319.497,155.698,319.497z"/>
<path style="fill:#CC894F;" d="M44.989,252.541c-11.538-21.407-16.134-44.563-16.467-67.408
	C27.779,133.298,49.018,83.115,61.07,58.91c-3.441-4.72-6.441-8.337-8.644-10.827c-1.916-2.164-5.394-1.768-6.782,0.767
	C36.302,65.904,6.981,124.387,7.852,185.132c0.332,22.845,4.929,46.001,16.467,67.408c47.276,87.72,131.379,82.736,131.379,82.736
	v-1.479C127.734,329.447,77.602,313.052,44.989,252.541z"/>
<path style="fill:#F2E5CB;" d="M102.439,171.111l-22.392-9.665c-1.954-0.846-4.221-0.094-5.277,1.745l-12.81,22.194
	c-1.275,2.215-4.242,2.769-6.238,1.17l-21.797-17.492c-1.432-1.149-3.427-1.233-4.942-0.219c-0.084,0.052-0.157,0.115-0.23,0.167
	L7.854,185.133C6.977,124.153,36.526,65.451,45.753,48.648c1.191-2.162,3.95-2.706,5.851-1.327c0.01,0,0.021,0,0.021,0.01
	c0.293,0.251,0.502,0.45,0.648,0.586c0.073,0.072,0.125,0.125,0.157,0.166c0.136,0.157,0.282,0.315,0.428,0.482
	c0.512,0.605,1.087,1.275,1.693,1.995c0.387,0.45,0.784,0.931,1.202,1.432c0.261,0.325,0.522,0.648,0.784,0.993
	c0.23,0.283,0.47,0.585,0.711,0.888c1.202,1.505,2.476,3.188,3.824,5.036C74.937,77.927,96.096,115.125,102.439,171.111z"/>
<path style="fill:#D1C1A1;" d="M61.071,58.91c-10.773,21.661-28.923,64.115-32.089,109.934c-0.084,0.052-0.157,0.115-0.23,0.167
	L7.854,185.133C6.977,124.153,36.526,65.451,45.753,48.648c1.191-2.162,3.95-2.706,5.851-1.327c0.01,0,0.021,0,0.021,0.01
	c0.293,0.251,0.502,0.45,0.648,0.586c0.073,0.072,0.125,0.125,0.157,0.166c0.136,0.157,0.282,0.315,0.428,0.482
	c0.533,0.605,1.097,1.275,1.693,1.995c0.387,0.45,0.784,0.931,1.202,1.432c0.261,0.325,0.522,0.648,0.784,0.993
	c0.23,0.283,0.47,0.585,0.711,0.888C58.448,55.378,59.723,57.06,61.071,58.91z"/>
<path style="fill:#FBB071;" d="M504.16,248.691l-2.717,9.741c-4.023,9.907-19.143,13.551-21.264,13.686
	c0,0-9.916,0.741-15.276,10.462l-33.949,3.267c-0.084,0.136-0.167,0.281-0.261,0.417c-5.841,9.428-13.019,44.935-44.366,77.456
	c-8.213,8.519,23.73,80.682,23.73,80.682c0.606,1.253,1.839,2.077,3.208,2.129l14.785,0.709c2.017,0.094,3.594,1.744,3.594,3.758
	v13.353c0,2.068-1.693,3.76-3.762,3.76h-40.615c-2.393,0-4.66-1.149-6.081-3.08l-15.412-21.016
	c-10.815-14.731-28.453-44.203-46.728-44.203H150.389c-7.67,12.487-15.914,43.618-16.802,47.868l31.566,2.413
	c1.996,0.355,3.344,2.234,3.041,4.238l-1.567,10.575c-0.272,1.837-1.86,3.206-3.73,3.206h-72.61c-2.079,0-3.762-1.692-3.762-3.76
	v-54.758c0,0-10.397-151.852,103.508-151.852l137.947-1.962l24.492-11.922c-17.617-6.933-32.078-22.342-35.422-44.893
	c-3.553-24.034-3.396-47.054-2.706-61.628c0.397-8.352,9.007-13.698,16.729-10.462c48.964,20.463,87.019,75.525,93.686,85.599
	l14.388,0.125c7.064,0.052,13.793,3.006,18.589,8.185l3.605,3.873c10.125,10.89,23.719,17.967,38.484,20.014l0.627,0.042
	C502.53,244.881,504.139,246.604,504.16,248.691z"/>
<g>
	<path style="fill:#CC894F;" d="M154.138,449.251c-0.014,0.064-0.031,0.142-0.043,0.196l11.93,0.927
		c-0.275-0.123-0.561-0.226-0.87-0.281L154.138,449.251z"/>
	<path style="fill:#CC894F;" d="M107.033,466.384v-55.623c0,0-9.349-138.932,87.08-153.075l-4.08,0.059
		c-113.904,0-103.508,151.852-103.508,151.852v54.758c0,2.068,1.682,3.76,3.762,3.76h17.173
		C107.196,467.59,107.033,467.008,107.033,466.384z"/>
</g>
<path style="fill:#F2E5CB;" d="M431.644,450.997v13.354c0,2.069-1.693,3.762-3.762,3.762h-40.615c-2.393,0-4.66-1.149-6.081-3.082
	l-15.412-21.012c-10.815-14.734-28.453-44.2-46.728-44.2H184.15c9.112-13.928,27.93-33.479,58.264-33.479h86.225
	c16.41,0,31.97-7.267,42.506-19.848c8.69-10.377,19.143-24.026,28.048-38.992c5.984-10.057,15.765-17.283,27.122-20.105l4.357-1.083
	c-5.841,9.488-13.04,44.931-44.345,77.406c-8.213,8.526,23.73,80.687,23.73,80.687c0.606,1.254,1.839,2.079,3.208,2.132
	l14.785,0.712C430.066,447.34,431.644,448.991,431.644,450.997z"/>
<path style="fill:#FBB071;" d="M145.233,410.056c0.169-0.292,0.348-0.574,0.527-0.865c5.229-11.66,10.572-24.758,21.672-42.855"/>
<path style="fill:#D1C1A1;" d="M401.694,467.074l-15.412-21.348c-10.815-14.964-28.453-44.903-46.728-44.903h-14.567
	c16.096,5.255,31.151,30.067,40.787,43.194l15.412,21.016c1.421,1.931,3.688,3.079,6.081,3.079h15.352
	C402.286,467.794,401.97,467.454,401.694,467.074z"/>
<path style="fill:#F2E5CB;" d="M374.391,227.133c-15.431-0.002-33.487-9.774-36.664-31.227c-2.346-15.841-2.961-31.286-2.878-43.935
	c29.827,16.902,54.52,47.173,66.131,62.99c-8.968,10.824-21.118,12.171-26.584,12.171
	C374.393,227.133,374.392,227.133,374.391,227.133z"/>
<path d="M428.427,439.418l-12.251-0.588c-2.203-5.098-7.527-17.637-12.528-31.074c-10.568-28.392-10.998-37.262-10.828-39.487
	c8.783-9.252,16.592-19.665,23.22-30.969c2.19-3.733,0.937-8.536-2.796-10.725c-3.733-2.189-8.535-0.937-10.725,2.796
	c-6.215,10.6-13.561,20.325-21.834,28.909c-5.264,5.465-5.918,16.013,7.065,51.658c6.969,19.135,14.811,36.89,15.142,37.637
	c0.036,0.079,0.072,0.159,0.11,0.238c1.876,3.88,5.694,6.39,9.888,6.549l10.919,0.526v5.387h-36.389l-15.327-20.896
	c-1.475-2.01-3.124-4.363-4.87-6.857c-11.986-17.109-28.402-40.543-48.175-40.543H162.238c3.14-6.397,6.918-13.466,11.875-21.547
	c2.262-3.688,1.107-8.514-2.584-10.777c-3.685-2.262-8.513-1.108-10.777,2.584c-9.95,16.222-15.358,28.437-20.129,39.216
	c-0.247,0.555-0.485,1.091-0.728,1.638c-0.169,0.373-0.338,0.753-0.505,1.137c-0.189,0.425-0.382,0.863-0.571,1.285
	c-0.121,0.196-0.24,0.394-0.357,0.593c-0.485,0.833-0.79,1.719-0.945,2.614c-6.114,15.416-11.081,34.861-11.603,37.356
	c-0.461,2.208,0.051,4.507,1.406,6.311c1.355,1.803,3.421,2.935,5.671,3.106l26.804,2.04l-0.406,2.737H94.363v-50.678
	c0-0.179-0.006-0.357-0.019-0.536c-0.053-0.769-4.833-77.492,33.301-118.325c15.589-16.692,36.579-25.156,62.388-25.156
	c0.037,0,0.074,0,0.111-0.001l24.164-0.344c4.328-0.062,7.787-3.62,7.725-7.946c-0.062-4.289-3.557-7.726-7.834-7.726
	c-0.038,0-0.075,0-0.113,0.001l-24.111,0.343c-27.858,0.012-51.082,8.589-69.148,25.499c-5.935-13.465-9.005-29.662-9.13-48.319
	c-0.028-4.311-3.532-7.784-7.836-7.784c-0.018,0-0.036,0-0.053,0c-4.329,0.029-7.814,3.561-7.784,7.889
	c0.159,23.7,4.703,44.105,13.489,60.782c-5.871,7.701-10.652,16.104-14.536,24.788c-26.65-13.396-48.083-34.854-63.754-63.936
	c-9.416-17.476-14.594-37.627-15.424-59.921l15.467-11.93l19.553,15.693c2.154,1.726,4.805,2.646,7.518,2.646
	c0.739,0,1.483-0.068,2.221-0.207c3.451-0.648,6.437-2.763,8.192-5.804l11.176-19.372l15.175,6.554
	c0.295,3.055,0.558,6.115,0.749,9.145c0.273,4.32,3.99,7.586,8.315,7.328c4.32-0.274,7.6-3.996,7.328-8.315
	c-0.299-4.728-0.72-9.529-1.253-14.27c-0.003-0.039-0.007-0.076-0.011-0.115c-0.152-1.372-0.324-2.747-0.491-4.046
	c-0.083-0.679-0.177-1.352-0.269-2.025c-0.038-0.278-0.073-0.557-0.111-0.834c-0.004-0.031-0.008-0.063-0.013-0.094
	c-0.087-0.666-0.183-1.32-0.279-1.976c-0.154-1.07-0.31-2.141-0.473-3.116c-0.011-0.076-0.024-0.152-0.036-0.228
	c-0.069-0.437-0.137-0.875-0.207-1.31c-0.126-0.791-0.255-1.573-0.387-2.325c-0.112-0.674-0.235-1.333-0.353-1.999
	c-0.106-0.592-0.207-1.193-0.315-1.781c-0.005-0.03-0.01-0.062-0.017-0.092c-0.236-1.266-0.483-2.521-0.729-3.76
	c-0.017-0.081-0.033-0.16-0.05-0.241c-0.237-1.182-0.481-2.351-0.729-3.513c-0.001-0.006-0.002-0.011-0.003-0.018
	c-10.52-49.166-31.527-80.666-43.822-95.707c-0.001-0.001-0.001-0.002-0.002-0.002c-0.001-0.002-0.003-0.004-0.005-0.006
	c-0.662-0.81-1.295-1.565-1.903-2.281c-0.022-0.025-0.044-0.052-0.066-0.077c-0.642-0.753-1.263-1.471-1.838-2.117
	c-0.022-0.024-0.046-0.044-0.068-0.068c-0.019-0.02-0.036-0.039-0.054-0.06c-2.477-2.789-4.013-4.245-4.183-4.404
	c-1.723-1.62-4.083-2.379-6.43-2.054c-2.344,0.322-4.418,1.683-5.641,3.707c-0.044,0.072-1.083,1.794-2.791,4.909
	c-0.028,0.05-0.059,0.101-0.086,0.153c-0.011,0.022-0.023,0.044-0.036,0.066c-1.272,2.318-2.927,5.43-4.837,9.232
	c-0.032,0.064-0.066,0.126-0.098,0.191c-0.186,0.355-0.366,0.717-0.548,1.086l-0.137,0.275c-0.042,0.084-0.083,0.168-0.121,0.253
	L32.404,57.4c-0.152,0.308-0.295,0.626-0.445,0.936c-0.75,1.545-1.528,3.178-2.328,4.892c-0.498,1.067-0.987,2.133-1.475,3.205
	c-0.515,1.133-1.037,2.297-1.563,3.49c-0.301,0.681-0.619,1.362-0.915,2.043l-0.717,1.669c-0.722,1.662-1.446,3.378-2.178,5.171
	l-0.462,1.139c-4.99,12.234-9.234,24.587-12.611,36.711c-0.28,1.003-0.56,2.028-0.815,2.987c-0.285,1.047-0.562,2.095-0.815,3.109
	c-0.581,2.262-1.08,4.305-1.521,6.215c-0.249,1.057-0.496,2.114-0.723,3.183c-0.165,0.721-0.321,1.448-0.476,2.181l-0.17,0.797
	c-0.15,0.719-0.3,1.449-0.44,2.188c-0.13,0.61-0.251,1.228-0.371,1.84l-0.056,0.289c-0.155,0.798-0.31,1.607-0.44,2.347
	c-0.153,0.821-0.296,1.643-0.433,2.448c-0.494,2.827-0.902,5.413-1.241,7.879c-0.12,0.846-0.239,1.693-0.347,2.536
	c-0.289,2.232-0.532,4.43-0.752,6.612c-0.097,0.959-0.189,1.921-0.275,2.884c-0.028,0.319-0.066,0.645-0.092,0.961l-0.03,0.367
	c-0.025,0.308-0.051,0.612-0.068,0.916c-0.022,0.273-0.04,0.537-0.06,0.806c-0.02,0.259-0.039,0.517-0.057,0.776
	c-0.015,0.213-0.032,0.433-0.047,0.644c-0.028,0.395-0.047,0.79-0.073,1.186c-0.023,0.371-0.047,0.743-0.068,1.114
	c-0.018,0.312-0.042,0.625-0.057,0.936c-0.016,0.312-0.025,0.628-0.04,0.94c-0.092,1.895-0.157,3.798-0.195,5.703
	c0,0.015-0.001,0.027-0.001,0.042c-0.002,0.041-0.001,0.083-0.003,0.123c-0.024,1.228-0.04,2.457-0.041,3.685
	c0,0.041-0.001,0.08-0.001,0.121c0,0.608,0.008,1.226,0.015,1.84c0.003,0.312,0.002,0.625,0.006,0.936l0.001,0.017
	c0.389,26.396,6.244,50.282,17.405,70.996c17.503,32.482,41.656,56.4,71.859,71.2c-12.886,38.681-10.865,78.062-10.593,82.394
	v54.495c0,6.395,5.203,11.598,11.598,11.598h72.61c5.714,0,10.65-4.256,11.481-9.896l1.564-10.553
	c0.945-6.253-3.191-12.019-9.416-13.127c-0.258-0.046-0.517-0.078-0.778-0.099l-22.22-1.691c2.293-8.165,5.978-20.13,9.741-28.993
	c0.415-0.928,0.832-1.867,1.252-2.816c0.176-0.377,0.351-0.761,0.526-1.119h24.583l4.774,57.628
	c0.481,5.981,5.56,10.666,11.562,10.666h52.506c6.396,0,11.599-5.203,11.599-11.598v-10.428c0-5.34-3.623-9.971-8.808-11.262
	c-0.323-0.079-0.649-0.14-0.979-0.179l-17.064-2.001l8.569-32.827h56.388l-12.108,48.54c-1.363,4.585-0.5,9.596,2.327,13.464
	c2.881,3.94,7.515,6.291,12.396,6.291h48.566c6.396,0,11.599-5.203,11.599-11.598v-9.551c0-5.421-3.851-10.189-9.189-11.343
	l-3.719-0.789l2.794-6.172c1.259,1.766,2.446,3.46,3.54,5.022c1.797,2.565,3.494,4.987,5.071,7.136l15.415,21.017
	c2.889,3.932,7.523,6.28,12.397,6.28h40.615c6.395,0,11.598-5.203,11.598-11.598v-13.354
	C439.481,444.793,434.619,439.705,428.427,439.418z M83.152,154.249c-5.602-2.423-12.125-0.259-15.174,5.026l-10.674,18.5
	L38.833,162.95c-2.203-1.768-4.861-2.655-7.522-2.655c-2.583,0-5.169,0.836-7.34,2.511l-7.791,6.008
	c0.024-0.329,0.047-0.659,0.073-0.99c0.059-0.761,0.122-1.519,0.189-2.278c0.085-0.963,0.179-1.941,0.28-2.929
	c0.059-0.576,0.117-1.15,0.181-1.724c0.112-1.014,0.235-2.039,0.364-3.069c0.078-0.633,0.155-1.267,0.238-1.898
	c0.054-0.406,0.11-0.813,0.168-1.228c0.155-1.11,0.315-2.217,0.484-3.321c0.032-0.21,0.063-0.415,0.096-0.628
	c0.159-1.018,0.33-2.028,0.503-3.039c0.046-0.271,0.09-0.533,0.138-0.809c0.052-0.302,0.104-0.606,0.158-0.912
	c0.199-1.116,0.402-2.23,0.614-3.337c0.014-0.067,0.026-0.14,0.039-0.207l0.054-0.276c0.109-0.56,0.22-1.126,0.339-1.684
	c0.014-0.061,0.025-0.121,0.037-0.182c0.004-0.023,0.009-0.046,0.014-0.068c0.141-0.7,0.278-1.403,0.424-2.099l0.097-0.456
	c0.181-0.85,0.37-1.692,0.557-2.536c0.181-0.835,0.372-1.666,0.573-2.517c0.181-0.775,0.363-1.55,0.55-2.32
	c0.127-0.527,0.26-1.066,0.398-1.621c0.219-0.884,0.442-1.765,0.67-2.641c0.068-0.266,0.136-0.533,0.206-0.801
	c0.192-0.732,0.391-1.456,0.587-2.181c0.197-0.736,0.397-1.472,0.601-2.202c0.383-1.377,0.782-2.76,1.188-4.143
	c0.09-0.305,0.182-0.605,0.273-0.909c0.315-1.057,0.634-2.116,0.962-3.175c0.15-0.486,0.303-0.967,0.456-1.449
	c0.274-0.868,0.551-1.738,0.833-2.607c0.188-0.58,0.377-1.156,0.567-1.73c0.256-0.771,0.515-1.544,0.777-2.317
	c0.211-0.622,0.422-1.241,0.634-1.856c0.259-0.747,0.523-1.494,0.788-2.241c0.215-0.607,0.429-1.219,0.646-1.818
	c0.447-1.237,0.902-2.475,1.366-3.714c0.18-0.479,0.36-0.945,0.54-1.418c0.336-0.886,0.674-1.77,1.019-2.655
	c0.178-0.458,0.355-0.907,0.533-1.358c0.418-1.06,0.84-2.119,1.271-3.178c0.99-2.438,1.974-4.792,2.945-7.043l0.206-0.481
	c0.36-0.833,0.719-1.646,1.074-2.451c0.08-0.184,0.161-0.367,0.242-0.55c0.373-0.84,0.743-1.663,1.11-2.471
	c0.053-0.117,0.107-0.235,0.16-0.352c1.13-2.483,2.222-4.805,3.264-6.964c0.101-0.21,0.204-0.422,0.305-0.632
	c0.315-0.647,0.624-1.28,0.927-1.894l0.351-0.706c0.001-0.002,0.001-0.003,0.002-0.005c0.172-0.347,0.343-0.689,0.511-1.025
	c0.022-0.043,0.044-0.088,0.066-0.131c0.022-0.043,0.044-0.085,0.066-0.127c0.691-1.378,1.393-2.752,2.102-4.113
	c11.085,13.729,33.871,47.426,42.765,101.047L83.152,154.249z M216.894,451.634c1.279,1.872,3.305,3.099,5.557,3.364l21.948,2.575
	v2.703h-44.682l-4.358-52.621h30.233l-9.809,37.581C215.209,447.428,215.615,449.762,216.894,451.634z M329.9,451.848
	c1.071,2.117,3.045,3.635,5.367,4.128l10.017,2.125v2.172h-44.08c0.008-0.029,0.016-0.06,0.023-0.089l13.105-52.532h4.714
	c6.515,0,14.046,6.668,20.969,14.756l-10.262,22.669C328.774,447.241,328.828,449.73,329.9,451.848z"/>
<path d="M501.08,236.903c-0.036-0.003-0.071-0.006-0.108-0.008l-0.34-0.022c-12.83-1.843-24.738-8.068-33.553-17.546l-3.592-3.863
	c-3.925-4.241-8.891-7.353-14.328-9.096c-2.17-25.855-8.993-68.228-30.26-99.362c-3.531-5.165-9.364-8.295-15.606-8.374
	c-6.193-0.11-12.063,2.88-15.694,7.92c-5.494,7.651-13.126,18.99-20.533,32.329c-10.2-7.607-21.269-14.341-32.963-19.227
	c-6.011-2.522-12.885-1.955-18.383,1.516c-5.459,3.446-8.899,9.351-9.206,15.8c-0.725,15.316-0.831,38.704,2.782,63.148
	c2.653,17.891,12.088,33.257,26.119,43.325l-9.296,4.525l-72.19,1.028c-4.328,0.062-7.787,3.62-7.725,7.946
	c0.062,4.328,3.59,7.81,7.946,7.725l73.938-1.053c1.151-0.017,2.284-0.285,3.319-0.79l24.492-11.922
	c2.796-1.36,4.522-4.245,4.401-7.353c-0.121-3.108-2.069-5.848-4.963-6.986c-16.732-6.58-27.862-20.703-30.538-38.742
	c-3.427-23.193-3.323-45.49-2.631-60.11c0.089-1.864,1.239-2.86,1.916-3.287c0.565-0.356,2.083-1.102,3.963-0.313
	c11.962,4.999,24.121,12.554,36.352,22.543c0.171,0.152,0.35,0.296,0.536,0.433c7.689,6.325,15.406,13.607,23.118,21.84
	c16.166,17.26,27.175,33.352,30.164,37.873c1.438,2.174,3.862,3.491,6.468,3.514l14.399,0.125c4.895,0.036,9.595,2.102,12.908,5.681
	l3.605,3.878c10.498,11.289,24.43,18.96,39.546,21.843l-1.108,3.969c-2.418,5.095-12.085,8.14-14.536,8.503
	c-4.616,0.372-13.117,3.104-19.067,10.825l-27.671,2.661c-0.103,0.01-0.206,0.022-0.31,0.037l-2.243,0.214
	c-2.445,0.233-4.638,1.598-5.928,3.687l-0.12,0.197c-0.102,0.154-0.197,0.31-0.288,0.47c-1.814,3.016-3.415,7.177-5.61,12.889
	l-0.912,2.37c-1.561,4.036,0.447,8.574,4.484,10.134c0.929,0.359,1.884,0.53,2.823,0.53c3.144,0,6.111-1.905,7.311-5.013
	l0.924-2.396c1.134-2.948,2.169-5.642,3.057-7.681l29.702-2.857c2.576-0.248,4.862-1.751,6.113-4.016
	c3.157-5.723,8.884-6.416,9.126-6.442l-0.026,0.002c3.744-0.348,22.235-4.75,27.839-18.545c0.112-0.276,0.208-0.557,0.288-0.844
	l2.717-9.738c0.197-0.711,0.295-1.445,0.287-2.182C511.935,242.435,507.243,237.398,501.08,236.903z M379.456,148.882
	c7.443-13.724,15.307-25.435,20.868-33.179c0.874-1.212,2.069-1.402,2.732-1.402c0.016,0,0.029,0,0.043,0.001
	c0.679,0.008,1.954,0.22,2.858,1.544c8.472,12.402,22.835,40.013,27.326,88.869l-4.34-0.038
	C421.672,194.138,403.785,169.967,379.456,148.882z M424.186,281.904c0.027-0.043,0.056-0.085,0.085-0.125h0.001
	C424.242,281.82,424.213,281.862,424.186,281.904z"/>
<path d="M374.396,234.97c6.07,0,21.397-1.462,32.62-15.007c2.293-2.767,2.41-6.741,0.283-9.638
	c-12.35-16.823-37.682-47.659-68.585-65.17c-2.416-1.37-5.379-1.357-7.787,0.034c-2.406,1.391-3.895,3.953-3.913,6.731
	c-0.106,15.964,0.891,31.149,2.962,45.133c3.858,26.047,25.727,37.913,44.415,37.915h0.004V234.97z M345.48,194.759
	c-1.324-8.935-2.182-18.414-2.566-28.313c20.148,14.423,37.077,33.972,47.648,47.699c-5.879,4.385-12.362,5.151-16.166,5.151h-0.003
	C362.217,219.294,347.976,211.615,345.48,194.759z"/>
<circle cx="443.786" cy="237.043" r="7.837"/>
<g>
</g>
<g>
</g>
<g>
</g>
<g>
</g>
<g>
</g>
<g>
</g>
<g>
</g>
<g>
</g>
<g>
</g>
<g>
</g>
<g>
</g>
<g>
</g>
<g>
</g>
<g>
</g>
<g>
</g>
</svg>
